<svg xmlns="http://www.w3.org/2000/svg" xmlns:xlink="http://www.w3.org/1999/xlink" width="295" height="128" viewBox="0 0 295 128">
    <defs>
        <path id="a" d="M0 0h149v67H0z"/>
        <path id="c" d="M0 0h149v67H0z"/>
        <path id="e" d="M0 0h149v67H0z"/>
        <path id="g" d="M0 0h149v67H0z"/>
    </defs>
    <g fill="none" fill-rule="evenodd">
        <g>
            <mask id="b" fill="#fff">
                <use xlink:href="#a"/>
            </mask>
            <path fill="#EFEFEF" d="M203.176 196.97a8.245 8.245 0 0 0-3.993 2.213 8.243 8.243 0 0 0-2.212 3.993H14.609a8.242 8.242 0 0 0-2.211-3.993 8.246 8.246 0 0 0-3.993-2.212V14.609a8.241 8.241 0 0 0 3.993-2.212 8.238 8.238 0 0 0 2.211-3.992h182.362a8.246 8.246 0 0 0 2.212 3.992 8.237 8.237 0 0 0 3.993 2.212v182.362zm-5.68-188.915l-.047-.237H14.131l-.046.237a7.642 7.642 0 0 1-2.102 3.928 7.65 7.65 0 0 1-3.928 2.102l-.237.046V197.45l.237.047a7.65 7.65 0 0 1 3.928 2.1 7.642 7.642 0 0 1 2.102 3.929l.046.237h183.318l.047-.237a7.651 7.651 0 0 1 2.1-3.928 7.651 7.651 0 0 1 3.929-2.101l.237-.047V14.131l-.237-.046a7.648 7.648 0 0 1-3.928-2.102 7.645 7.645 0 0 1-2.101-3.928zm6.912 189.97a6.978 6.978 0 0 0-4.353 2.03 6.978 6.978 0 0 0-2.03 4.353H13.554a6.981 6.981 0 0 0-2.029-4.353 6.982 6.982 0 0 0-4.354-2.03V13.554a6.981 6.981 0 0 0 4.354-2.029 6.985 6.985 0 0 0 2.03-4.354h184.468a6.982 6.982 0 0 0 2.031 4.354 6.977 6.977 0 0 0 4.353 2.03v184.468zm.587-185.616c-1.601 0-3.057-.656-4.112-1.711a5.804 5.804 0 0 1-1.711-4.112V6H12.408v.586c0 1.6-.655 3.056-1.71 4.112a5.805 5.805 0 0 1-4.112 1.71H6v186.764h.586c1.6 0 3.056.655 4.112 1.711a5.803 5.803 0 0 1 1.71 4.112v.585h186.764v-.585c0-1.6.655-3.057 1.711-4.112a5.802 5.802 0 0 1 4.112-1.711h.585V12.409h-.585z" mask="url(#b)"/>
        </g>
        <g transform="matrix(-1 0 0 1 295 0)">
            <mask id="d" fill="#fff">
                <use xlink:href="#c"/>
            </mask>
            <path fill="#EFEFEF" d="M203.176 196.97a8.245 8.245 0 0 0-3.993 2.213 8.243 8.243 0 0 0-2.212 3.993H14.609a8.242 8.242 0 0 0-2.211-3.993 8.246 8.246 0 0 0-3.993-2.212V14.609a8.241 8.241 0 0 0 3.993-2.212 8.238 8.238 0 0 0 2.211-3.992h182.362a8.246 8.246 0 0 0 2.212 3.992 8.237 8.237 0 0 0 3.993 2.212v182.362zm-5.68-188.915l-.047-.237H14.131l-.046.237a7.642 7.642 0 0 1-2.102 3.928 7.65 7.65 0 0 1-3.928 2.102l-.237.046V197.45l.237.047a7.65 7.65 0 0 1 3.928 2.1 7.642 7.642 0 0 1 2.102 3.929l.046.237h183.318l.047-.237a7.651 7.651 0 0 1 2.1-3.928 7.651 7.651 0 0 1 3.929-2.101l.237-.047V14.131l-.237-.046a7.648 7.648 0 0 1-3.928-2.102 7.645 7.645 0 0 1-2.101-3.928zm6.912 189.97a6.978 6.978 0 0 0-4.353 2.03 6.978 6.978 0 0 0-2.03 4.353H13.554a6.981 6.981 0 0 0-2.029-4.353 6.982 6.982 0 0 0-4.354-2.03V13.554a6.981 6.981 0 0 0 4.354-2.029 6.985 6.985 0 0 0 2.03-4.354h184.468a6.982 6.982 0 0 0 2.031 4.354 6.977 6.977 0 0 0 4.353 2.03v184.468zm.587-185.616c-1.601 0-3.057-.656-4.112-1.711a5.804 5.804 0 0 1-1.711-4.112V6H12.408v.586c0 1.6-.655 3.056-1.71 4.112a5.805 5.805 0 0 1-4.112 1.71H6v186.764h.586c1.6 0 3.056.655 4.112 1.711a5.803 5.803 0 0 1 1.71 4.112v.585h186.764v-.585c0-1.6.655-3.057 1.711-4.112a5.802 5.802 0 0 1 4.112-1.711h.585V12.409h-.585z" mask="url(#d)"/>
        </g>
        <g transform="rotate(180 147.5 64)">
            <mask id="f" fill="#fff">
                <use xlink:href="#e"/>
            </mask>
            <path fill="#EFEFEF" d="M203.176 196.97a8.245 8.245 0 0 0-3.993 2.213 8.243 8.243 0 0 0-2.212 3.993H14.609a8.242 8.242 0 0 0-2.211-3.993 8.246 8.246 0 0 0-3.993-2.212V14.609a8.241 8.241 0 0 0 3.993-2.212 8.238 8.238 0 0 0 2.211-3.992h182.362a8.246 8.246 0 0 0 2.212 3.992 8.237 8.237 0 0 0 3.993 2.212v182.362zm-5.68-188.915l-.047-.237H14.131l-.046.237a7.642 7.642 0 0 1-2.102 3.928 7.65 7.65 0 0 1-3.928 2.102l-.237.046V197.45l.237.047a7.65 7.65 0 0 1 3.928 2.1 7.642 7.642 0 0 1 2.102 3.929l.046.237h183.318l.047-.237a7.651 7.651 0 0 1 2.1-3.928 7.651 7.651 0 0 1 3.929-2.101l.237-.047V14.131l-.237-.046a7.648 7.648 0 0 1-3.928-2.102 7.645 7.645 0 0 1-2.101-3.928zm6.912 189.97a6.978 6.978 0 0 0-4.353 2.03 6.978 6.978 0 0 0-2.03 4.353H13.554a6.981 6.981 0 0 0-2.029-4.353 6.982 6.982 0 0 0-4.354-2.03V13.554a6.981 6.981 0 0 0 4.354-2.029 6.985 6.985 0 0 0 2.03-4.354h184.468a6.982 6.982 0 0 0 2.031 4.354 6.977 6.977 0 0 0 4.353 2.03v184.468zm.587-185.616c-1.601 0-3.057-.656-4.112-1.711a5.804 5.804 0 0 1-1.711-4.112V6H12.408v.586c0 1.6-.655 3.056-1.71 4.112a5.805 5.805 0 0 1-4.112 1.71H6v186.764h.586c1.6 0 3.056.655 4.112 1.711a5.803 5.803 0 0 1 1.71 4.112v.585h186.764v-.585c0-1.6.655-3.057 1.711-4.112a5.802 5.802 0 0 1 4.112-1.711h.585V12.409h-.585z" mask="url(#f)"/>
        </g>
        <g transform="matrix(1 0 0 -1 0 128)">
            <mask id="h" fill="#fff">
                <use xlink:href="#g"/>
            </mask>
            <path fill="#EFEFEF" d="M203.176 196.97a8.245 8.245 0 0 0-3.993 2.213 8.243 8.243 0 0 0-2.212 3.993H14.609a8.242 8.242 0 0 0-2.211-3.993 8.246 8.246 0 0 0-3.993-2.212V14.609a8.241 8.241 0 0 0 3.993-2.212 8.238 8.238 0 0 0 2.211-3.992h182.362a8.246 8.246 0 0 0 2.212 3.992 8.237 8.237 0 0 0 3.993 2.212v182.362zm-5.68-188.915l-.047-.237H14.131l-.046.237a7.642 7.642 0 0 1-2.102 3.928 7.65 7.65 0 0 1-3.928 2.102l-.237.046V197.45l.237.047a7.65 7.65 0 0 1 3.928 2.1 7.642 7.642 0 0 1 2.102 3.929l.046.237h183.318l.047-.237a7.651 7.651 0 0 1 2.1-3.928 7.651 7.651 0 0 1 3.929-2.101l.237-.047V14.131l-.237-.046a7.648 7.648 0 0 1-3.928-2.102 7.645 7.645 0 0 1-2.101-3.928zm6.912 189.97a6.978 6.978 0 0 0-4.353 2.03 6.978 6.978 0 0 0-2.03 4.353H13.554a6.981 6.981 0 0 0-2.029-4.353 6.982 6.982 0 0 0-4.354-2.03V13.554a6.981 6.981 0 0 0 4.354-2.029 6.985 6.985 0 0 0 2.03-4.354h184.468a6.982 6.982 0 0 0 2.031 4.354 6.977 6.977 0 0 0 4.353 2.03v184.468zm.587-185.616c-1.601 0-3.057-.656-4.112-1.711a5.804 5.804 0 0 1-1.711-4.112V6H12.408v.586c0 1.6-.655 3.056-1.71 4.112a5.805 5.805 0 0 1-4.112 1.71H6v186.764h.586c1.6 0 3.056.655 4.112 1.711a5.803 5.803 0 0 1 1.71 4.112v.585h186.764v-.585c0-1.6.655-3.057 1.711-4.112a5.802 5.802 0 0 1 4.112-1.711h.585V12.409h-.585z" mask="url(#h)"/>
        </g>
    </g>
</svg>
