<svg xmlns="http://www.w3.org/2000/svg" xmlns:xlink="http://www.w3.org/1999/xlink" width="67" height="66" viewBox="0 0 67 66">
    <defs>
        <path id="a" d="M32.163 0L67 35.464V66L0 0z"/>
    </defs>
    <g fill="none" fill-rule="evenodd">
        <g>
            <mask id="b" fill="#fff">
                <use xlink:href="#a"/>
            </mask>
            <use fill="#FF4E64" fill-rule="nonzero" xlink:href="#a"/>
            <path fill="#FFF" fill-opacity=".4" fill-rule="nonzero" d="M44.984-13.291l2.608.002.065 66.934-2.608-.002z" mask="url(#b)" transform="rotate(-45 46.32 20.177)"/>
            <path fill="#FFF" fill-opacity=".4" fill-rule="nonzero" d="M35.434-16.31l2.608.003.092 93.882-2.608-.003z" mask="url(#b)" transform="rotate(-45 36.784 30.633)"/>
        </g>
        <g fill="#FFF" fill-rule="nonzero">
            <path fill-opacity=".5" d="M18.188 6.264l-1.286.672.245-1.424-1.04-1.008 1.438-.208L18.187 3l.643 1.296 1.438.208-1.04 1.008.245 1.424zM43.563 29.764l-1.286.672.245-1.424-1.04-1.008 1.438-.208.642-1.296.643 1.296 1.438.208-1.04 1.008.245 1.424zM58.438 47.171l-1.286.673.245-1.424-1.04-1.01 1.438-.207.642-1.296.643 1.296 1.438.208-1.04 1.009.245 1.424z"/>
            <path fill-opacity=".3" d="M29.563 15.403l-.772.403.147-.854-.624-.605.863-.125.386-.778.385.778.863.125-.624.605.147.854zM22.563 9.31l-.772.404.147-.855-.624-.605.863-.125.386-.777.385.777.863.125-.624.605.147.855zM37.438 22.366l-.772.403.147-.854-.624-.605.863-.125.386-.778.385.778.863.125-.624.605.147.854zM55.813 39.773l-.772.404.147-.855-.624-.605.863-.125.386-.777.385.777.863.125-.624.605.147.855zM63.688 49.347l-.772.404.147-.855-.624-.605.863-.125.386-.777.385.777.863.125-.624.605.147.855z"/>
        </g>
    </g>
</svg>
