<svg xmlns="http://www.w3.org/2000/svg" width="17" height="17" viewBox="0 0 17 17">
    <path fill="#999" fill-rule="nonzero" d="M8.5 2a6.5 6.5 0 1 0 0 13 6.5 6.5 0 0 0 0-13zM9 8.598l-.005.046-.005.036-.01.035-.015.043-.003.007a.41.41 0 0 1-.03.054l-.002.003a.405.405 0 0 1-.042.052l-.013.013a.383.383 0 0 1-.042.036l-.013.01a.394.394 0 0 1-.06.033l-.014.005A.391.391 0 0 1 8.602 9l-.015-.002a.389.389 0 0 1-.068-.007l-.02-.007a.396.396 0 0 1-.06-.02l-.006-.003L6.228 7.89a.415.415 0 0 1-.19-.545.393.393 0 0 1 .53-.196l1.637.795V4.41c0-.227.178-.41.397-.41.22 0 .398.183.398.41v4.188z"/>
</svg>
